<?xml version="1.0" encoding="utf-8"?>
<!-- Generator: Adobe Illustrator 27.0.1, SVG Export Plug-In . SVG Version: 6.00 Build 0)  -->
<svg version="1.1" id="Слой_1" xmlns="http://www.w3.org/2000/svg" xmlns:xlink="http://www.w3.org/1999/xlink" x="0px" y="0px"
	 width="500px" height="459.4px" viewBox="0 0 500 459.4" style="enable-background:new 0 0 500 459.4;" xml:space="preserve">
<style type="text/css">
	.st0{fill:#242424;}
	.st1{fill:#FFFFFF;}
</style>
<g>
	<g>
		<path class="st0" d="M412.8,114.7c-3.4-8.3-9.1-16.1-17.1-23.2c-3.4-3-11.2-10-23.9-13.9c-5.7-1.7-11.6-2.6-17.6-2.6
			c-4.5,0-8.1,0.5-10.7,0.9c-1.4,0.2-2.7,0.5-3.9,0.8c0.2-1,0.4-2,0.6-3c0.6-3.7,2.4-14.9-1.7-28.3c-3.9-12.7-10.9-20.6-13.9-23.9
			c-7-8-14.8-13.7-23.2-17.1c-7.1-2.9-14.7-4.4-22.6-4.4c-9.4,0-19.1,2.1-29.3,6.2C242.3,3.2,232.1,0,220.5,0
			c-8,0-15.7,1.5-22.9,4.4c-8.3,3.4-16.1,9.1-23.2,17.1c-3,3.4-10,11.2-13.9,23.9c-4.1,13.4-2.3,24.6-1.7,28.3
			c0.2,1.4,0.5,2.7,0.8,4c-1-0.2-2.1-0.4-3.3-0.6c-2.6-0.4-6.2-0.9-10.8-0.9c-6,0-11.9,0.9-17.6,2.6c-12.7,3.9-20.6,10.9-23.9,13.9
			c-8,7-13.7,14.8-17.1,23.2c-6.4,15.7-5.7,33.2,1.9,52c-5,11.7-10.2,31.4-1.9,52c3.4,8.3,9.1,16.1,17.1,23.2
			c3.4,3,11.2,10,23.9,13.9c5.7,1.7,11.6,2.6,17.6,2.6c4.5,0,8.1-0.5,10.7-0.9c1-0.2,1.9-0.3,2.8-0.5c-0.2,0.9-0.4,1.8-0.5,2.8
			c-0.6,3.7-2.4,14.9,1.7,28.3c3.9,12.7,10.9,20.6,13.9,23.9c7,8,14.8,13.7,23.2,17.1c7.1,2.9,14.7,4.4,22.6,4.4
			c9.4,0,19.1-2.1,29.3-6.2c7.3,3.1,17.5,6.3,29.1,6.3c8,0,15.7-1.5,22.9-4.4c8.3-3.4,16.1-9.1,23.2-17.1c3-3.4,10-11.2,13.9-23.9
			c4.1-13.4,2.3-24.6,1.7-28.3c-0.2-1.5-0.5-2.9-0.8-4.3c1.4,0.3,2.8,0.6,4.4,0.9c2.6,0.4,6.2,0.9,10.7,0.9c6,0,11.9-0.9,17.6-2.6
			c12.7-3.9,20.6-10.9,23.9-13.9c8-7,13.7-14.8,17.1-23.2c6.4-15.7,5.7-33.2-1.9-52C416,154.9,421.2,135.3,412.8,114.7z"/>
		<g>
			<path class="st1" d="M284.4,97.1l11.2,11.3c-8.4,9.8-16.5,17.6-21.4,22.1c-6.2,5.7-14.5,13-24.8,21.1
				c-10.3-8.1-18.6-15.4-24.8-21.1c-5.4-5-15-14.2-24.3-25.6c-1.6-1.9-3.1-3.9-4.7-5.9c-1.2-1.6-3-4-4.9-7.1c-1.2-2-2.6-4.4-3.8-7
				c-2.2-4.5-4.2-8.8-5.2-14.8c-0.5-3-1.5-9.7,1-17.8c2.3-7.6,6.5-12.4,9-15.2c1.5-1.7,7-7.9,14.6-11c15.8-6.4,31.8,0.1,39.1,4.2
				l-12.5,12.5c-3.6-1.5-7.7-3.5-12.7-3.5c-2.9,0-5.5,0.5-8,1.5c-2.7,1.1-5.6,3.4-8.6,6.8l-0.1,0.1c-1.8,2-4.3,4.8-5.6,9.3
				c-1.4,4.7-0.8,8.7-0.5,10.7c0.6,3.8,1.9,6.4,3.8,10.4c0.4,0.8,0.8,1.5,1.1,2.3c2.4,4.5,4.8,7.7,5.9,9.2c1.1,1.4,2.1,2.8,3.3,4.2
				c6.6,8.2,14.6,16.7,23.9,25.3c4.5,4.2,9.2,8.3,14,12.3c4.8-4,9.5-8.1,14-12.3C271.4,111.4,278.4,104.1,284.4,97.1z"/>
			<path class="st1" d="M317.2,70c-1,6.1-3,10.3-5.2,14.8c-0.5,0.9-0.9,1.9-1.4,2.7l-10.7-10.7l-1.1-1.1c1.3-2.9,2.3-5.2,2.7-8.2
				c0.3-1.9,1-6-0.5-10.7c-1.4-4.4-3.8-7.2-5.6-9.2l-0.1-0.1c-3-3.4-5.9-5.7-8.6-6.8c-2.5-1-5.1-1.5-8-1.5c-4.4,0-8.5,1-13.3,3.9
				c-3,1.8-5.9,3.7-8.3,5.8l-10.7,9.8l-31.1,31.2c-1-1.2-1.9-2.4-2.8-3.6c-1.1-1.5-3.8-5-6.2-9.9l42-42.1c2.4-2.4,4.3-3.8,9-5.8
				c8.4-3.5,21.9-7.7,35.4-2.3c7.6,3.1,13,9.3,14.6,11c2.5,2.8,6.7,7.6,9,15.2C318.7,60.2,317.7,67,317.2,70z"/>
			<path class="st1" d="M321.5,105c0,0-6.4,4.2-7.4,5c-2.8,2.1-5.6,4.6-5.6,4.6l-21.2-21.1L253,59.1c0,0,9.4-8.4,12.3-10.4L296.6,80
				L321.5,105z"/>
			<path class="st1" d="M214.3,237.4l-11.2-11.3c8.4-9.8,16.5-17.6,21.4-22.1c6.2-5.7,14.5-13,24.8-21.1
				c10.3,8.1,18.6,15.4,24.8,21.1c5.4,5,15,14.2,24.3,25.6c1.6,1.9,3.1,3.9,4.7,5.9c1.2,1.6,3,4,4.9,7.1c1.2,2,2.6,4.4,3.8,7
				c2.2,4.5,4.2,8.8,5.2,14.8c0.5,3,1.5,9.7-1,17.8c-2.3,7.6-6.5,12.4-9,15.2c-1.5,1.7-7,7.9-14.6,11c-15.8,6.4-31.8-0.1-39.1-4.2
				l12.5-12.5c3.6,1.5,7.7,3.5,12.7,3.5c2.9,0,5.5-0.5,8-1.5c2.7-1.1,5.6-3.4,8.6-6.8l0.1-0.1c1.8-2,4.3-4.8,5.6-9.3
				c1.4-4.7,0.8-8.7,0.5-10.7c-0.6-3.8-1.9-6.4-3.8-10.4c-0.4-0.8-0.8-1.5-1.1-2.3c-2.4-4.5-4.8-7.7-5.9-9.2
				c-1.1-1.4-2.1-2.8-3.3-4.2c-6.6-8.2-14.6-16.7-23.9-25.3c-4.5-4.2-9.2-8.3-14-12.3c-4.8,4-9.5,8.1-14,12.3
				C227.3,223,220.3,230.3,214.3,237.4z"/>
			<path class="st1" d="M181.6,264.5c1-6.1,3-10.3,5.2-14.8c0.5-0.9,0.9-1.9,1.4-2.7l10.7,10.7l1.1,1.1c-1.3,2.9-2.3,5.2-2.7,8.2
				c-0.3,1.9-1,6,0.5,10.7c1.4,4.4,3.8,7.2,5.6,9.2l0.1,0.1c3,3.4,5.9,5.7,8.6,6.8c2.5,1,5.1,1.5,8,1.5c4.4,0,8.5-1,13.3-3.9
				c3-1.8,5.9-3.7,8.3-5.8l10.7-9.8l31.1-31.2c1,1.2,1.9,2.4,2.8,3.6c1.1,1.5,3.8,5,6.2,9.9l-42,42.1c-2.4,2.4-4.3,3.8-9,5.8
				c-8.4,3.5-21.9,7.7-35.4,2.3c-7.6-3.1-13-9.3-14.6-11c-2.5-2.8-6.7-7.6-9-15.2C180.1,274.2,181.1,267.5,181.6,264.5z"/>
			<path class="st1" d="M177.2,229.5c0,0,6.4-4.2,7.4-5c2.8-2.1,5.6-4.6,5.6-4.6l21.2,21.1l34.4,34.4c0,0-9.4,8.4-12.3,10.4
				l-31.3-31.3L177.2,229.5z"/>
			<path class="st1" d="M179.7,132.8l11.3-11.3c9.8,8.4,17.6,16.5,22.1,21.4c5.7,6.2,13,14.5,21.1,24.8
				c-8.1,10.3-15.4,18.6-21.1,24.8c-5,5.4-14.2,15-25.6,24.4c-1.9,1.6-3.9,3.1-5.9,4.7c-1.6,1.2-4,3-7.1,4.9c-2,1.2-4.3,2.6-7,3.8
				c-4.5,2.2-8.7,4.2-14.8,5.2c-3,0.5-9.7,1.5-17.8-1c-7.6-2.3-12.4-6.5-15.2-9c-1.7-1.5-7.9-7-11-14.6c-6.4-15.8,0.1-31.8,4.1-39.1
				l12.5,12.5c-1.5,3.6-3.5,7.7-3.5,12.7c0,2.9,0.5,5.5,1.5,8c1.1,2.7,3.4,5.6,6.8,8.6l0.1,0.1c2,1.8,4.8,4.3,9.3,5.6
				c4.7,1.4,8.7,0.8,10.7,0.5c3.8-0.6,6.4-1.9,10.4-3.8c0.8-0.4,1.5-0.8,2.3-1.2c4.5-2.4,7.7-4.8,9.2-5.9c1.4-1.1,2.8-2.1,4.2-3.3
				c8.2-6.6,16.7-14.6,25.2-23.9c4.2-4.5,8.3-9.2,12.3-14c-4-4.8-8.1-9.5-12.3-14C194,145.8,186.8,138.8,179.7,132.8z"/>
			<path class="st1" d="M152.6,100c6.1,1,10.3,3,14.8,5.2c0.9,0.5,1.9,0.9,2.7,1.4l-10.7,10.7l-1.1,1.1c-2.9-1.3-5.2-2.3-8.2-2.8
				c-1.9-0.3-5.9-1-10.7,0.5c-4.4,1.4-7.2,3.8-9.2,5.6l-0.1,0.1c-3.4,3-5.7,5.9-6.8,8.6c-1,2.5-1.5,5.1-1.5,8c0,4.4,1,8.5,3.9,13.3
				c1.8,3,3.7,5.9,5.8,8.3l9.8,10.7l31.1,31.1c-1.2,1-2.4,1.9-3.6,2.8c-1.5,1.1-5,3.8-9.9,6.2l-42.1-42c-2.4-2.4-3.8-4.3-5.8-9
				c-3.5-8.4-7.7-21.9-2.3-35.4c3.1-7.6,9.3-13,11-14.6c2.8-2.5,7.6-6.7,15.2-9C142.9,98.6,149.6,99.5,152.6,100z"/>
			<path class="st1" d="M187.6,95.7c0,0,4.2,6.4,5,7.4c2.1,2.8,4.6,5.6,4.6,5.6l-21,21.2l-34.4,34.4c0,0-8.4-9.4-10.3-12.4
				l31.3-31.3L187.6,95.7z"/>
			<path class="st1" d="M320.1,201.6l-11.3,11.3c-9.8-8.4-17.6-16.5-22.1-21.4c-5.7-6.2-13-14.5-21.1-24.8
				c8.1-10.3,15.4-18.6,21.1-24.8c5-5.4,14.2-15,25.6-24.4c1.9-1.6,3.9-3.1,5.9-4.7c1.6-1.2,4-3,7.1-4.9c2-1.2,4.3-2.6,7-3.8
				c4.5-2.2,8.7-4.2,14.8-5.2c3-0.5,9.7-1.5,17.8,1c7.6,2.3,12.4,6.5,15.2,9c1.7,1.5,7.9,7,11,14.6c6.4,15.8-0.1,31.8-4.1,39.1
				l-12.5-12.5c1.5-3.6,3.5-7.7,3.5-12.7c0-2.9-0.5-5.5-1.5-8c-1.1-2.7-3.4-5.6-6.8-8.6l-0.1-0.1c-2-1.8-4.8-4.3-9.3-5.6
				c-4.7-1.4-8.7-0.8-10.7-0.5c-3.8,0.6-6.4,1.9-10.4,3.8c-0.8,0.4-1.5,0.8-2.3,1.2c-4.5,2.4-7.7,4.8-9.2,5.9
				c-1.4,1.1-2.8,2.1-4.2,3.3c-8.2,6.6-16.7,14.6-25.2,23.9c-4.2,4.5-8.3,9.2-12.3,14c4,4.8,8.1,9.5,12.3,14
				C305.7,188.6,313,195.6,320.1,201.6z"/>
			<path class="st1" d="M347.2,234.4c-6.1-1-10.3-3-14.8-5.2c-0.9-0.5-1.9-0.9-2.7-1.4l10.7-10.7l1.1-1.1c2.9,1.3,5.2,2.3,8.2,2.8
				c1.9,0.3,5.9,1,10.7-0.5c4.4-1.4,7.2-3.8,9.2-5.6l0.1-0.1c3.4-3,5.7-5.9,6.8-8.6c1-2.5,1.5-5.1,1.5-8c0-4.4-1-8.5-3.9-13.3
				c-1.8-3-3.7-5.9-5.8-8.3l-9.8-10.7l-31.1-31.1c1.2-1,2.4-1.9,3.6-2.8c1.5-1.1,5-3.8,9.9-6.2l42.1,42c2.4,2.4,3.8,4.3,5.8,9
				c3.5,8.4,7.7,21.9,2.3,35.4c-3.1,7.6-9.3,13-11,14.6c-2.8,2.5-7.6,6.7-15.2,9C356.9,235.9,350.2,234.9,347.2,234.4z"/>
			<path class="st1" d="M312.2,238.8c0,0-4.2-6.4-5-7.4c-2.1-2.8-4.6-5.6-4.6-5.6l21-21.2l34.4-34.4c0,0,8.4,9.4,10.3,12.4
				l-31.3,31.3L312.2,238.8z"/>
		</g>
	</g>
	<g>
		<path class="st0" d="M482.8,360.9v24h-41.5v-24H424v93.9h17.2v-22.2h41.5v22.2H500v-93.9H482.8z M482.8,415.3h-41.5v-13.1h41.5
			V415.3z"/>
		<polygon class="st0" points="315.5,378.2 315.5,360.9 236.4,360.9 236.4,378.2 267.3,378.2 267.3,387.4 236.4,387.4 236.4,404.7 
			267.3,404.7 267.3,454.8 284.6,454.8 284.6,404.7 315.5,404.7 315.5,387.4 284.6,387.4 284.6,378.2 		"/>
		<polygon class="st0" points="222.2,360.9 181.4,459.4 156.6,400 131.7,459.4 90.9,360.9 109.3,360.9 131.7,413.6 156.6,355 
			181.4,413.6 203.8,360.9 		"/>
		<path class="st0" d="M17.6,408.1c0,16.8,13.6,30.5,30.5,30.5c13.7,0,23.3-5.3,29-12.5v22.1c-6.7,4.8-15.8,8.9-29,8.9
			c-27,0-48-22.8-48-49.8s23.2-48.2,48-48.2c13.1,0,20.3,2.7,29,9c0,0,0,0,0,0v23.1c-5.9-7.7-15.9-13.6-29-13.6
			C31.2,377.6,17.6,391.3,17.6,408.1z"/>
		<path class="st0" d="M348.9,408.1c0,16.8,13.6,30.5,30.5,30.5c13.7,0,23.3-5.3,29-12.5v22.1c-6.7,4.8-15.8,8.9-29,8.9
			c-27,0-48-22.8-48-49.8s23.2-48.2,48-48.2c13.1,0,20.3,2.7,29,9c0,0,0,0,0,0v23.1c-5.9-7.7-15.9-13.6-29-13.6
			C362.5,377.6,348.9,391.3,348.9,408.1z"/>
	</g>
</g>
</svg>
